<mxfile host="app.diagrams.net" modified="2022-05-15T12:48:19.761Z" agent="5.0 (Macintosh; Intel Mac OS X 10_15_7) AppleWebKit/537.36 (KHTML, like Gecko) Chrome/101.0.4951.64 Safari/537.36" etag="bs4rJmBlZ97Vb1egDRBM" version="17.5.0" type="github">
  <diagram id="6a731a19-8d31-9384-78a2-239565b7b9f0" name="Page-1">
    <mxGraphModel dx="1470" dy="962" grid="1" gridSize="10" guides="1" tooltips="1" connect="1" arrows="1" fold="1" page="1" pageScale="1" pageWidth="1169" pageHeight="827" math="0" shadow="0">
      <root>
        <mxCell id="0" />
        <mxCell id="1" parent="0" />
        <mxCell id="dSzuP_4658Dhp5cGhsQd-1542" value="&lt;span style=&quot;background-color: rgb(255 , 255 , 255)&quot;&gt;RECONNAISSANCE&lt;/span&gt;" style="rounded=1;whiteSpace=wrap;html=1;sketch=0;fontColor=#095C86;strokeColor=#AF45ED;fillColor=#F694C1;" vertex="1" parent="1">
          <mxGeometry x="440" y="390" width="120" height="60" as="geometry" />
        </mxCell>
      </root>
    </mxGraphModel>
  </diagram>
</mxfile>
